<svg width="40" height="40" viewBox="0 0 40 40" fill="none" xmlns="http://www.w3.org/2000/svg">
<path d="M20 0C8.97231 0 0 8.97231 0 20C0 31.0277 8.97231 40 20 40C31.0277 40 40 31.0277 40 20C40 8.97231 31.0277 0 20 0ZM20 3.07692C29.3631 3.07692 36.9231 10.6369 36.9231 20C36.9231 29.3631 29.3631 36.9231 20 36.9231C10.6369 36.9231 3.07692 29.3631 3.07692 20C3.07692 10.6369 10.6369 3.07692 20 3.07692ZM14.1831 11.9708L11.9692 14.1846L17.7877 20L11.9723 25.8169L14.1831 28.0292L20 22.2108L25.8169 28.0292L28.0292 25.8169L22.2108 20L28.0292 14.1831L25.8169 11.9708L20 17.7877L14.1831 11.9708Z" fill="#EB5757"/>
</svg>
